<svg width="111" height="37" viewBox="0 0 111 37" fill="none" xmlns="http://www.w3.org/2000/svg">
<path d="M26.9038 17.1428C26.4912 17.1428 26.2849 17.0254 26.2849 16.7905C26.2849 16.6064 26.3992 16.5144 26.6277 16.5144L27.0942 16.562C27.4751 16.562 27.729 16.3494 27.856 15.9241C27.9702 15.5623 28.0273 14.9148 28.0273 13.9817V5.0791H27.7703C26.6594 5.0791 25.7739 5.19336 25.1138 5.42188C24.6567 5.58691 24.3457 5.86938 24.1807 6.26929C24.0601 6.56128 23.9331 6.70728 23.7998 6.70728C23.6157 6.70728 23.5237 6.59937 23.5237 6.38354C23.5237 6.32007 23.5364 6.24707 23.5618 6.16455C23.5935 6.08203 23.6284 5.98364 23.6665 5.86938C23.7681 5.5647 23.8284 5.24731 23.8474 4.91724C23.8665 4.58716 23.9014 4.36816 23.9521 4.26025C24.0093 4.146 24.0854 4.08887 24.1807 4.08887C24.2759 4.08887 24.3616 4.09839 24.4377 4.11743C24.5139 4.13013 24.625 4.146 24.771 4.16504C25.1519 4.21582 25.6311 4.24121 26.2087 4.24121H32.2454C32.7151 4.24121 33.0547 4.21582 33.2642 4.16504C33.48 4.11426 33.6355 4.08887 33.7307 4.08887C33.9402 4.08887 34.0449 4.18726 34.0449 4.38403C34.0449 4.4856 34.0259 4.6062 33.9878 4.74585C33.8926 5.05688 33.8291 5.32666 33.7974 5.55518C33.772 5.77734 33.7466 5.96143 33.7212 6.10742C33.6958 6.24707 33.6672 6.35815 33.6355 6.44067C33.5847 6.58032 33.5085 6.65015 33.407 6.65015C33.3054 6.65015 33.2388 6.61523 33.207 6.54541C33.1816 6.46924 33.1531 6.32642 33.1213 6.11694C33.0896 5.90747 33.0356 5.73608 32.9595 5.60278C32.8833 5.46948 32.7817 5.36475 32.6548 5.28857C32.4326 5.14893 32.0708 5.0791 31.5693 5.0791H29.5222V13.9817C29.5222 14.9402 29.5635 15.5591 29.646 15.8384C29.7349 16.1113 29.8396 16.3018 29.9602 16.4097C30.0872 16.5112 30.2522 16.562 30.4553 16.562L30.9124 16.5144C31.1409 16.5144 31.2551 16.6064 31.2551 16.7905C31.2551 17.0254 31.052 17.1428 30.6458 17.1428C30.4363 17.1428 30.2141 17.1238 29.9792 17.0857C29.2175 16.9651 28.5637 16.9429 28.0178 17.019C27.4783 17.1016 27.1069 17.1428 26.9038 17.1428ZM41.8183 17.1428C41.4057 17.1428 41.1994 17.0254 41.1994 16.7905C41.1994 16.6064 41.3136 16.5144 41.5421 16.5144L42.0087 16.562C42.3515 16.562 42.5895 16.397 42.7228 16.0669C42.8688 15.6987 42.9418 15.0037 42.9418 13.9817L42.8942 7.25952C42.8942 6.21216 42.8371 5.55518 42.7228 5.28857C42.6149 5.01562 42.5006 4.84741 42.38 4.78394C42.2658 4.71411 42.1261 4.6792 41.9611 4.6792L41.4945 4.71729C41.266 4.71729 41.1518 4.62524 41.1518 4.44116C41.1518 4.2063 41.3263 4.08887 41.6754 4.08887C42.0246 4.08887 42.3546 4.11426 42.6657 4.16504C42.9831 4.21582 43.3131 4.24121 43.6559 4.24121C43.9987 4.24121 44.3256 4.21582 44.6366 4.16504C44.9477 4.11426 45.2746 4.08887 45.6173 4.08887C45.9665 4.08887 46.141 4.2063 46.141 4.44116C46.141 4.62524 46.0268 4.71729 45.7982 4.71729L45.3412 4.6792C44.9984 4.6792 44.7604 4.84424 44.6271 5.17432C44.4811 5.54248 44.4081 6.23755 44.4081 7.25952L44.4557 13.9817C44.4557 15.0037 44.516 15.6543 44.6366 15.9336C44.7636 16.2129 44.8905 16.3875 45.0175 16.4573C45.1444 16.5271 45.2904 16.562 45.4555 16.562L45.9125 16.5144C46.141 16.5144 46.2553 16.6064 46.2553 16.7905C46.2553 17.0254 46.0521 17.1428 45.6459 17.1428C45.4364 17.1428 45.2143 17.1238 44.9794 17.0857C44.1859 16.9587 43.5099 16.9365 42.9513 17.019C42.3991 17.1016 42.0214 17.1428 41.8183 17.1428ZM54.857 17C54.5333 17 54.2286 17.0222 53.9429 17.0667C53.6636 17.1174 53.3589 17.1428 53.0289 17.1428C52.7051 17.1428 52.5433 17.0381 52.5433 16.8286C52.5433 16.6128 52.6924 16.5049 52.9908 16.5049C53.3018 16.5049 53.524 16.4478 53.6573 16.3335C53.8731 16.1367 54.0857 15.8162 54.2952 15.3718C54.5047 14.9275 54.6983 14.5117 54.876 14.1245C55.0601 13.7373 55.2696 13.2866 55.5044 12.7725C55.7393 12.252 55.9964 11.6743 56.2757 11.0396C56.5613 10.3984 56.8597 9.71924 57.1707 9.00195C57.9832 7.1167 58.5196 5.85034 58.7798 5.20288C59.0401 4.54907 59.1829 4.18726 59.2083 4.11743C59.24 4.04761 59.2718 3.98413 59.3035 3.927C59.386 3.7937 59.4559 3.72705 59.513 3.72705C59.5701 3.72705 59.6177 3.73657 59.6558 3.75562C59.6939 3.76831 59.7352 3.79687 59.7796 3.84131C59.8748 3.96191 59.97 4.14282 60.0652 4.38403C60.1604 4.6189 60.2874 4.93945 60.4461 5.3457C60.6111 5.75195 60.7984 6.21216 61.0079 6.72632C61.2173 7.24048 61.4395 7.79272 61.6744 8.38306C61.9092 8.97339 62.1441 9.56372 62.379 10.1541C62.6202 10.738 62.8519 11.3062 63.074 11.8584C63.3025 12.4106 63.5057 12.9089 63.6834 13.3533C64.2293 14.6799 64.5784 15.4734 64.7308 15.7336C64.8831 15.9939 65.0101 16.1748 65.1116 16.2764C65.2703 16.4287 65.5052 16.5049 65.8162 16.5049C66.1272 16.5049 66.2828 16.6128 66.2828 16.8286C66.2828 17.0381 66.0828 17.1428 65.6829 17.1428C65.5115 17.1428 65.3624 17.1333 65.2354 17.1143C65.1148 17.1016 64.991 17.0889 64.8641 17.0762C64.4959 17.0254 64.169 17 63.8834 17L62.0457 17.1428C61.6331 17.1428 61.4268 17.0254 61.4268 16.7905C61.4268 16.6001 61.5411 16.5049 61.7696 16.5049L62.3409 16.5715C62.5821 16.5715 62.7408 16.5208 62.8169 16.4192C62.8931 16.3113 62.9312 16.178 62.9312 16.0193C62.9312 15.7209 62.8042 15.2576 62.5503 14.6292L61.7601 12.6487H56.4756C56.3233 13.0295 56.1805 13.3787 56.0472 13.696C55.9202 14.0134 55.8028 14.3213 55.6949 14.6196C55.5235 15.1021 55.4378 15.4829 55.4378 15.7622C55.4378 16.0352 55.4854 16.2383 55.5806 16.3716C55.6822 16.4985 55.8694 16.562 56.1424 16.562L56.7137 16.5144C56.9422 16.5144 57.0564 16.6064 57.0564 16.7905C57.0564 17.0254 56.8501 17.1428 56.4375 17.1428L54.857 17ZM61.4363 11.8394L59.1702 6.16455C58.7322 7.27539 57.9483 9.16699 56.8184 11.8394H61.4363ZM73.342 17.1428C72.9294 17.1428 72.7231 17.0254 72.7231 16.7905C72.7231 16.6064 72.8374 16.5144 73.0659 16.5144L73.5324 16.562C73.9133 16.562 74.1672 16.3494 74.2941 15.9241C74.4084 15.5623 74.4655 14.9148 74.4655 13.9817V7.27856C74.4655 6.33911 74.4211 5.72974 74.3322 5.45044C74.2434 5.16479 74.1354 4.97119 74.0085 4.86963C73.8879 4.76172 73.7292 4.70776 73.5324 4.70776L73.0659 4.75537C72.8374 4.75537 72.7231 4.66016 72.7231 4.46973C72.7231 4.22217 72.9294 4.09839 73.342 4.09839L74.5893 4.24121C74.8559 4.24121 75.0939 4.22217 75.3034 4.18408L84.0727 14.3816V7.25952C84.0727 6.33276 84.0219 5.72339 83.9204 5.4314C83.8251 5.1394 83.7141 4.94263 83.5871 4.84106C83.4602 4.73315 83.2951 4.6792 83.092 4.6792L82.6254 4.71729C82.3969 4.71729 82.2827 4.62524 82.2827 4.44116C82.2827 4.2063 82.489 4.08887 82.9016 4.08887C83.0603 4.08887 83.2729 4.11108 83.5395 4.15552C83.8759 4.21265 84.1806 4.24121 84.4536 4.24121C84.7265 4.24121 84.9931 4.21582 85.2534 4.16504C85.5136 4.11426 85.8183 4.08887 86.1674 4.08887C86.5166 4.08887 86.6911 4.2063 86.6911 4.44116C86.6911 4.62524 86.5769 4.71729 86.3483 4.71729L85.8818 4.6792C85.4946 4.6792 85.2375 4.89185 85.1105 5.31714C85.0026 5.65356 84.9487 6.30103 84.9487 7.25952V16.8762C84.9487 17.092 84.9296 17.2349 84.8916 17.3047C84.8535 17.3745 84.7932 17.4094 84.7106 17.4094C84.5964 17.4094 84.4155 17.2761 84.1679 17.0095L75.3891 6.84058V13.9817C75.3891 14.9402 75.4304 15.5591 75.5129 15.8384C75.6018 16.1113 75.7065 16.3018 75.8271 16.4097C75.9541 16.5112 76.1191 16.562 76.3222 16.562L76.7792 16.5144C77.0078 16.5144 77.122 16.6064 77.122 16.7905C77.122 17.0254 76.9379 17.1428 76.5698 17.1428C76.208 17.1428 75.8842 17.1174 75.5986 17.0667C75.3193 17.0222 75.0463 17 74.7797 17C74.5131 17 74.2497 17.0222 73.9895 17.0667C73.7355 17.1174 73.5197 17.1428 73.342 17.1428Z" fill="#545454"/>
<path d="M34.666 30V25.2108H35.4789V27.2871H37.849V25.2108H38.6619V30H37.849V28.0412H35.4789V30H34.666ZM46.9546 25.8278C46.4779 25.8278 46.0764 25.9976 45.7499 26.3371C45.4235 26.6766 45.2602 27.088 45.2602 27.5711C45.2602 28.0543 45.4235 28.4656 45.7499 28.8052C46.0764 29.1381 46.4779 29.3046 46.9546 29.3046C47.4312 29.3046 47.8328 29.1381 48.1592 28.8052C48.4857 28.4656 48.6489 28.0543 48.6489 27.5711C48.6489 27.088 48.4857 26.6766 48.1592 26.3371C47.8328 25.9976 47.4312 25.8278 46.9546 25.8278ZM46.9546 30.049C46.2364 30.049 45.6357 29.8139 45.1525 29.3438C44.6694 28.8672 44.4278 28.2763 44.4278 27.5711C44.4278 26.866 44.6694 26.2784 45.1525 25.8082C45.6357 25.3316 46.2364 25.0933 46.9546 25.0933C47.6728 25.0933 48.2735 25.3316 48.7566 25.8082C49.2398 26.2784 49.4814 26.866 49.4814 27.5711C49.4814 28.2763 49.2365 28.8639 48.7468 29.334C48.2572 29.8107 47.6597 30.049 46.9546 30.049ZM57.0643 25.9454V30H56.2514V25.9454H54.8019V25.2108H58.5137V25.9454H57.0643ZM67.5185 25.2108V25.9649H64.9623V27.2381H67.254V27.9531H64.9623V29.2361H67.5968V30H64.1494V25.2108H67.5185ZM73.3803 30V25.2108H74.1932V29.2361H76.3772V30H73.3803Z" fill="#545454"/>
<line x1="93" y1="27.75" x2="111" y2="27.75" stroke="#545454" stroke-width="0.5"/>
<line y1="27.75" x2="18" y2="27.75" stroke="#545454" stroke-width="0.5"/>
</svg>
